<svg width="550" height="150" xmlns="http://www.w3.org/2000/svg">
 <!-- Created with Method Draw - http://github.com/duopixel/Method-Draw/ -->

 <g>
  <title>background</title>
  <rect fill="#fff" id="canvas_background" height="152" width="552" y="-1" x="-1"/>
 </g>
 <g>
  <title>Layer 1</title>
  <defs>
   <style type="text/css"/>
  </defs>
  <g stroke="null" id="svg_10">
   <path stroke="null" id="svg_4" fill="#C3C3C3" d="m118.613213,31.175465c3.627711,-6.609392 12.158631,-10.253668 20.126343,-10.253668c8.43153,0 15.587563,5.830842 18.055732,13.881379c0.579771,0.215344 1.159542,0.546641 1.673054,0.977329c2.153436,1.805573 2.600688,4.787254 1.010458,6.692216c-0.513512,0.612901 -1.192672,1.043588 -1.921527,1.258932c0,0.03313 0,0.049695 -0.016565,0.082824c0.265038,0.165649 0.530077,0.347863 0.795115,0.563206c2.120306,1.789008 2.584123,4.754124 1.010458,6.625957c-1.027023,1.225802 -2.650383,1.673054 -4.240612,1.358321c-0.049695,0.099389 -0.099389,0.198779 -0.149084,0.314733c2.170001,2.037482 2.567558,5.217941 0.861374,7.255423c-1.540535,1.838703 -4.323437,2.153436 -6.592827,0.861374c-0.06626,0.06626 -0.149084,0.132519 -0.215344,0.198779c0.215344,0.314733 0.397557,0.662596 0.546641,1.010458c1.043588,2.716642 -1.010458,6.013056 -3.975574,7.156033c-0.629466,0.231908 -1.292062,0.364428 -1.954657,0.397557c1.225802,3.180459 2.352215,6.410613 3.346108,9.673897c9.557943,31.638943 -27.56398,61.455748 -61.455748,61.455748c-33.991158,0 -72.355447,-27.779323 -60.296206,-63.277886c0.894504,-2.683512 1.838703,-5.300765 2.816032,-7.851759c-0.877939,0.049695 -1.772443,-0.06626 -2.584123,-0.380993c-2.965116,-1.142978 -5.019162,-4.439391 -3.975574,-7.156033c0.132519,-0.347863 0.314733,-0.695725 0.546641,-1.010458c-0.06626,-0.06626 -0.149084,-0.132519 -0.215344,-0.198779c-2.285955,1.275497 -5.052292,0.977329 -6.592827,-0.861374c-1.706184,-2.037482 -1.308626,-5.217941 0.861374,-7.255423c-0.049695,-0.099389 -0.099389,-0.198779 -0.149084,-0.314733c-1.59023,0.314733 -3.230154,-0.132519 -4.240612,-1.358321c-1.573665,-1.871833 -1.126413,-4.836948 1.010458,-6.625957c0.248473,-0.215344 0.513512,-0.397557 0.795115,-0.563206c0,-0.03313 0,-0.049695 -0.016565,-0.082824c-0.74542,-0.231908 -1.408016,-0.646031 -1.921527,-1.258932c-1.59023,-1.888398 -1.126413,-4.886643 1.010458,-6.692216c0.513512,-0.430687 1.093283,-0.761985 1.673054,-0.977329c2.468169,-8.050537 9.624202,-13.881379 18.055732,-13.881379c7.735804,0 15.985121,3.428933 19.795046,9.673897c9.044431,-8.183057 19.993824,-12.821226 33.444516,-12.821226c12.705272,-0.016565 23.787185,5.118552 33.080089,13.384433z"/>
   <path stroke="null" id="svg_5" fill="#525252" d="m161.400329,44.046386c1.225802,-1.474275 1.739314,-3.362673 1.441146,-5.333895c-0.281603,-1.855268 -1.258932,-3.578017 -2.766337,-4.836948c-0.397557,-0.331298 -0.81168,-0.612901 -1.258932,-0.861374c-1.45771,-4.041834 -3.959009,-7.520461 -7.288552,-10.121149c-3.727101,-2.915421 -8.149927,-4.439391 -12.788096,-4.439391c-4.389696,0 -8.928477,1.027023 -12.771532,2.898856c-3.230154,1.573665 -5.897101,3.660841 -7.868324,6.145575c-9.905805,-8.083667 -20.871764,-12.19176 -32.599707,-12.19176c-6.87443,0 -13.351303,1.176107 -19.281534,3.511757c-4.870078,1.904963 -9.475118,4.654735 -13.74886,8.149927c-1.987787,-2.352215 -4.63817,-4.323437 -7.785499,-5.797712c-3.82649,-1.789008 -8.116797,-2.733207 -12.423669,-2.733207c-4.654735,0 -9.077561,1.540535 -12.788096,4.439391c-3.329543,2.600688 -5.830842,6.079315 -7.288552,10.121149c-0.447252,0.248473 -0.861374,0.530077 -1.258932,0.861374c-1.507405,1.258932 -2.484734,2.981681 -2.766337,4.836948c-0.298168,1.971222 0.215344,3.876185 1.441146,5.333895c-1.838703,2.650383 -1.871833,6.12901 0.149084,8.530919c0.629466,0.761985 1.424581,1.341756 2.319085,1.739314c-0.844809,2.468169 -0.480382,5.184811 1.209237,7.189163c1.358321,1.606794 3.346108,2.484734 5.449849,2.517864c0.082824,1.142978 0.447252,2.30252 1.060153,3.379238c1.060153,1.822138 2.782902,3.312978 4.754124,4.058398c0.03313,0.016565 0.06626,0.016565 0.082824,0.03313c-0.596336,1.656489 -1.192672,3.362673 -1.772443,5.085422c-2.385344,7.040079 -2.998245,14.096723 -1.805573,20.971153c1.109848,6.344354 3.727101,12.440234 7.785499,18.105427c5.847407,8.166492 14.428021,15.107181 24.830773,20.076649c10.170844,4.853513 21.169932,7.421071 31.837722,7.421071c10.469012,0 21.40184,-2.683512 31.605813,-7.785499c10.121149,-5.052292 18.652068,-12.009546 24.681689,-20.142908c4.108093,-5.532674 6.87443,-11.363516 8.232751,-17.376571c1.474275,-6.493438 1.242367,-13.020005 -0.679161,-19.380923c-0.74542,-2.435039 -1.5571,-4.836948 -2.418474,-7.205728c1.772443,-0.795115 3.329543,-2.186566 4.290307,-3.876185c0.629466,-1.076718 0.977329,-2.23626 1.060153,-3.379238c2.103741,-0.049695 4.091528,-0.911069 5.449849,-2.517864c1.673054,-2.004352 2.054047,-4.720994 1.209237,-7.189163c0.894504,-0.397557 1.689619,-0.977329 2.319085,-1.739314c1.209237,-1.441146 1.739314,-3.379238 1.441146,-5.31733c-0.182214,-1.109848 -0.629466,-2.203131 -1.292062,-3.180459zm-5.764582,-2.319085c-0.049695,0 -0.099389,-0.016565 -0.149084,-0.016565c-0.679161,0 -1.159542,0.761985 -1.159542,1.822138c0,1.109848 0.513512,1.987787 1.159542,1.987787l0.06626,0l0.74542,0.430687c0.149084,0.082824 0.298168,0.198779 0.447252,0.314733c0.563206,0.463817 0.927634,1.109848 1.027023,1.755879c0.049695,0.314733 0.06626,0.894504 -0.331298,1.374886c-0.397557,0.480382 -1.093283,0.662596 -1.855268,0.513512l-1.921527,-0.380993c-0.265038,-0.06626 -0.563206,0 -0.844809,0.198779c-0.331298,0.231908 -0.596336,0.612901 -0.795115,1.093283c-0.347863,0.877939 -0.430687,1.904963 -0.03313,2.30252l-0.049695,0.099389l1.308626,1.242367c1.225802,1.142978 1.507405,2.832596 0.662596,3.85962c-0.74542,0.894504 -2.203131,1.010458 -3.478627,0.298168l-1.606794,-0.894504l-0.06626,0.06626c-0.198779,-0.132519 -0.463817,-0.165649 -0.761985,-0.115954c-0.397557,0.06626 -0.81168,0.281603 -1.192672,0.629466c-0.397557,0.364428 -0.728855,0.795115 -0.927634,1.192672c-0.198779,0.430687 -0.215344,0.77855 -0.03313,1.027023l-0.132519,0.115954l1.225802,1.772443c0.115954,0.165649 0.198779,0.314733 0.265038,0.480382c0.496947,1.308626 -0.761985,3.263284 -2.550993,3.942444c-0.347863,0.132519 -0.74542,0.215344 -1.159542,0.231908l-3.478627,0.132519l1.258932,3.246719c1.192672,3.08107 2.30252,6.278094 3.279849,9.491683c4.124658,13.632906 -1.408016,25.112376 -6.775041,32.334669c-5.549239,7.503896 -13.467257,13.964204 -22.89268,18.668633c-9.524813,4.737559 -19.679091,7.255423 -29.386118,7.255423c-9.773286,0 -20.325122,-2.468169 -29.700851,-6.94069c-9.640767,-4.60504 -17.57535,-10.999088 -22.92581,-18.486419c-7.570156,-10.568401 -9.408858,-22.528253 -5.31733,-34.587494c0.894504,-2.683512 1.838703,-5.2842 2.782902,-7.768934l1.358321,-3.578017l-3.809925,0.198779c-0.563206,0.03313 -1.093283,-0.049695 -1.5571,-0.231908c-1.789008,-0.679161 -3.04794,-2.633818 -2.550993,-3.942444c0.06626,-0.165649 0.149084,-0.331298 0.265038,-0.480382l1.225802,-1.772443l-0.132519,-0.115954c0.165649,-0.231908 0.165649,-0.596336 -0.03313,-1.027023c-0.182214,-0.397557 -0.530077,-0.844809 -0.927634,-1.192672c-0.380993,-0.347863 -0.795115,-0.563206 -1.192672,-0.629466c-0.298168,-0.049695 -0.546641,0 -0.761985,0.115954l-0.06626,-0.06626l-1.606794,0.894504c-1.275497,0.71229 -2.733207,0.579771 -3.478627,-0.298168c-0.844809,-1.010458 -0.563206,-2.700077 0.662596,-3.85962l1.308626,-1.242367l-0.049695,-0.099389c0.165649,-0.165649 0.248473,-0.447252 0.265038,-0.828245c0.016565,-0.447252 -0.099389,-0.977329 -0.298168,-1.49084c-0.198779,-0.480382 -0.463817,-0.861374 -0.795115,-1.093283c-0.281603,-0.198779 -0.563206,-0.265038 -0.844809,-0.198779l-1.921527,0.380993c-0.761985,0.149084 -1.45771,-0.03313 -1.855268,-0.513512c-0.679161,-0.81168 -0.364428,-2.23626 0.695725,-3.130765c0.149084,-0.115954 0.298168,-0.231908 0.447252,-0.314733l0.74542,-0.430687l0.06626,0c0.646031,0 1.159542,-0.877939 1.159542,-1.987787c0,-1.060153 -0.480382,-1.822138 -1.159542,-1.822138c-0.049695,0 -0.099389,0 -0.149084,0.016565l-1.192672,-0.364428c-0.314733,-0.099389 -0.563206,-0.265038 -0.761985,-0.496947c-0.414122,-0.480382 -0.380993,-1.093283 -0.347863,-1.408016c0.099389,-0.662596 0.480382,-1.308626 1.043588,-1.772443c0.281603,-0.248473 0.596336,-0.430687 0.944199,-0.546641l1.159542,-0.430687l0.364428,-1.176107c2.219695,-7.255423 8.530919,-12.125501 15.686952,-12.125501c7.487331,0 14.577105,3.412368 17.674739,8.481225l1.5571,2.567558l2.219695,-2.020917c9.060996,-8.199621 19.463748,-12.175195 31.788027,-12.175195c11.346951,0 21.931917,4.290307 31.456729,12.771532l2.33565,2.070611l1.507405,-2.733207c1.474275,-2.683512 4.008704,-4.952903 7.338247,-6.576262c3.180459,-1.540535 6.957255,-2.401909 10.601531,-2.401909c7.156033,0 13.450692,4.870078 15.686952,12.125501l0.364428,1.176107l1.159542,0.430687c0.331298,0.115954 0.646031,0.314733 0.944199,0.546641c0.563206,0.480382 0.944199,1.126413 1.043588,1.772443c0.049695,0.314733 0.06626,0.927634 -0.347863,1.408016c-0.198779,0.231908 -0.447252,0.397557 -0.761985,0.496947l-1.176107,0.430687z"/>
   <path stroke="null" id="svg_6" fill="#F98373" d="m85.334346,93.641672c3.776795,0 6.8413,3.064505 6.8413,6.8413l0,0.03313l-0.06626,14.875273c-0.016565,3.727101 -3.04794,6.741911 -6.775041,6.741911s-6.758476,-3.01481 -6.775041,-6.741911l-0.06626,-14.875273c-0.016565,-3.776795 3.031375,-6.857865 6.80817,-6.87443l0.03313,0z"/>
   <path stroke="null" id="svg_7" fill="#525252" d="m60.652657,68.463036m-4.141223,0a4.141223,4.141223 0 1 0 8.282446,0a4.141223,4.141223 0 1 0 -8.282446,0z"/>
   <path stroke="null" id="svg_8" fill="#525252" d="m110.347332,68.463036m-4.141223,0a4.141223,4.141223 0 1 0 8.282446,0a4.141223,4.141223 0 1 0 -8.282446,0z"/>
   <path stroke="null" id="svg_9" fill="#525252" d="m95.074502,76.612963c-1.027023,-2.103741 -2.716642,-3.79336 -4.820383,-4.803819c-5.184811,-2.517864 -11.429775,-0.347863 -13.947639,4.836948l-5.963361,12.29115c-0.877939,1.822138 -1.341756,3.82649 -1.341756,5.863972c0,5.565804 3.379238,10.336492 8.199621,12.373974l0.03313,8.232751c0.016565,4.439391 3.660841,8.067102 8.100232,8.067102c4.439391,0 8.083667,-3.611146 8.100232,-8.067102l0.03313,-7.934583c0.496947,-0.165649 0.977329,-0.380993 1.441146,-0.596336c6.659086,-3.246719 9.425423,-11.280691 6.16214,-17.939778l-5.996491,-12.324279zm-9.740156,44.195131c-2.931986,0 -5.35046,-2.352215 -5.449849,-5.267636c2.484734,-1.341756 5.963361,-1.408016 10.353057,-0.198779c0.182214,0.049695 0.364428,0.06626 0.546641,0.049695c-0.016565,2.981681 -2.468169,5.41672 -5.449849,5.41672zm5.466414,-8.3984c-4.323437,-1.159542 -8.000843,-1.192672 -10.932829,-0.115954l-0.016565,-4.323437c0.828245,0.165649 1.689619,0.248473 2.567558,0.248473l6.609392,0c0.596336,0 1.192672,-0.049695 1.789008,-0.115954l-0.016565,4.306872z"/>
  </g>
  <g stroke="null" id="svg_20">
   <text stroke="null" transform="matrix(1.1809924956591082,0,0,1.1809924956591082,-714.4553742534263,-585.8800172906922) " id="svg_14" y="575.991378" x="757.097747" font-size="60.25px" fill="rgb(0, 0, 0)" font-family="Adobe Heiti Std">
    <tspan stroke="null" id="svg_15" fill="#E74C3C" font-family="STHupo" font-size="60.25px">L</tspan>
    <tspan stroke="null" id="svg_16" fill="#3498DB" font-family="STHupo" font-size="60.25px">a</tspan>
    <tspan stroke="null" id="svg_17" fill="#E74C3C" font-family="STHupo" font-size="60.25px">z</tspan>
    <tspan stroke="null" id="svg_18" fill="#3498DB" font-family="STHupo" font-size="60.25px">y</tspan>
    <tspan stroke="null" id="svg_19" fill="#E74C3C" font-family="STHupo" font-size="60.25px">Pan</tspan>
   </text>
  </g>
 </g>
</svg>